<?xml version="1.0" encoding="utf-8"?>
<!-- Generator: Adobe Illustrator 19.2.1, SVG Export Plug-In . SVG Version: 6.00 Build 0)  -->
<svg version="1.1"
	 id="Layer_1" mapsvg:geoViewBox="-127.55272679845754 50.54828705652597 -64.54920772895363 24.215873369454947" xmlns:dc="http://purl.org/dc/elements/1.1/" xmlns:mapsvg="http://mapsvg.com" xmlns:rdf="http://www.w3.org/1999/02/22-rdf-syntax-ns#" xmlns:svg="http://www.w3.org/2000/svg"
	 xmlns="http://www.w3.org/2000/svg" xmlns:xlink="http://www.w3.org/1999/xlink" x="0px" y="0px" viewBox="0 0 593.4 318.3"
	 style="enable-background:new 0 0 593.4 318.3;" xml:space="preserve">
<path id="US-AK" d="M350.4,49.9v7.8v7.7v7.6v7.5v7.4v7.3v7.3v7.2v7.1v7v6.9v6.8v6.8v6.7v6.6v6.6v6.5v6.4v6.3v6.3v6.2v6.1v6.1v6v5.9
	v5.9v5.8v5.8v5.7v5.7v5.6v5.6l2.2,0.8l2.2,0.8l0.7-1.5l2.4,1.2l2.1,1l1.3-1.3l1.5-1.4l2-0.1l2.2-0.1l1.5-0.1v1.2l-0.5,2l-0.5,1.7
	l1.2,1.5l0.1,0.2l1.6,0.9l1.5,0.8l0.7,2.3l1.7,1.8l1.3,1.3l1.2,1.3l1.8,1.8l1.2,1.3l1.6,1.7l1,1l0.5,2l0.6,2.3l-0.4,1.4l0.8,0.2
	l1.5-1.5l1.4-1l1.8-1.2l1.2-0.8l2.2,0l1-2.3v-3.3l1.1,0.1l0.7-0.5l0.3-1l-0.7-1.3l2.1-0.6l1.5-0.5l2.2-1.2l2.1-1.2l1,0.9l1,0.9
	l2,2.2l0.1,0.5l-0.1,1l-0.2,1l1.2,2.8l0.3,0.3l1,0.4l1.2,0.9l0.5,0.8l1.7,1.3l0.3,0.5l0.2,0.9l0.3,0.7l0.3,0.5l0.3,0.8l0.7,0.9
	l1.4,1l1,0.7l1.4,1l1.4,2l1.2,1.7l1.4,1.7l-0.2,1.3l1.4,2l1.5,2.6l1.1,2.3l0.8,1.3l1,1.8l1.2,2.2l1.3,2.5l1,1.6l1.3,2.3l0.6,1.4
	l-0.4,0.9l-0.5,1.1l1.7,0.5l1.2,0.4l-0.3,1.3l-0.4,1.7l1.3,0.6l0.9,0.4l-0.2,0.9l0.5,1l0.1,1.6l1.6-0.1l0.7,0l1,0.7l1.3,1l1.3,0.9
	l1.1,0.8l1.4,0.5l1.8,0.6l0.9,1.3l1.6,0.6l0.6,1.8l1.9,0.7l1.1-0.5l0.4,0.7l0.3,0.9l0.1,1.1l-0.1,1l-0.5,0.9l-0.4,0.9l-0.2,1
	l-0.1,1.1l0.1,1.2l0.2,1l0.6,1.9l0.2,1.1l0,0.8l-1.3,2.6l-0.4,1.3l0,0.6l-0.9,1.3l-1.7,1.8l-0.8,1l-0.4-0.4l-2.2-0.3l-0.8-2.3
	l-0.4-1.8l-0.6-1.6l0-0.4l0.6-1.1l2.2-0.9l0-0.4l-0.8-0.2l-0.2-0.4l-0.2-1.7l0.1-1.5l-0.1-1l-0.4-2.1l-0.5-1.3l-1.4-2.5l-0.1-0.6
	l0.6-0.8l0.4-0.7l-2.4,1.3l-3.3,1.3l-1.4,0.9l-0.3,0.4l-0.1,0.3l0.3,0.9l0,0.3l-0.3,0.5l-0.3,1.5l-0.7,1.5l-0.4,0.3l-1.3-0.6
	l-0.3-0.5l-0.6-2l0.1-0.5l0.5-0.5l0.6-1l0.8-1.5l1.5-3.9l1,0l1.8-0.8l-2.8-0.4l-0.4-0.2l-0.4-0.5l-0.3-0.9l-0.6-1l-1-0.3l-0.5-0.4
	l-0.7-1.2l-0.5-0.5l-0.2-0.6l0-0.8l-0.2-0.4l-0.7-0.1l-0.4-0.3l-0.1-2l-1.4-0.5l-0.6-0.4l-0.9-1.2l-0.3-0.6l-0.1-0.5l0.2-1.4
	l-0.1-0.3l-0.8,0.1l-5.2-2.2l0.3-2.9l-1-3.8l-1-1.5l0.2-0.6l0.2-0.3l0.5,0l2,1.1l1.9,1.3l0.2-0.2l-3-2.8l-0.8-0.9l-0.2-1l0-0.5
	l0.2-0.3l2.8,0.2l0.2-0.2l-2.9-0.8h-0.6l-0.6,1.2l-0.3,0.3L419,305l-0.2-0.2l-0.7-1.5l-0.7-1l-1.3-1.4l-0.2-1l-0.1-1.5l0.2-1.4
	l1-3.2l0.4-0.6l0.1-0.4l-0.3,0l-0.3,0.3l-0.9,1.5l-0.9,2.4l-0.7,0.8l-0.5-0.2l-0.7-1l-1.5-1.2l-1.7-0.3l-1.1-1.2l-1.6-3.5l-0.2-1.7
	l-0.2-0.4l-0.9-0.6l-0.5-0.8l-0.8-4.3l-1.1-3l-0.3-1.6l0.1-1.6l-0.1-0.2l-0.4,1.2l-0.1,0.6l-0.7,0.2l0.6,1.2l0.2,0.6l-0.3,0
	l-0.6,0.1l1.1,2.1l0.5,3.2l0.7,2.4l0.5,1.9l0.2,1.5l0.3,1.4l0.9,3.1l0.1,0.6l-0.1,0.5l-0.3,0.6l-0.5,0.2l-1.5-0.4l-0.6-0.8l-0.8-1.4
	l-1.1-0.6l-2.8,0.3l-0.2-0.1l0-1.1l0.3-2l-0.3-0.8l-1.5-3l0-0.6l2-1.4l-1-0.1l-0.8,0.5l-0.3-0.4l-0.5-1.9l-0.3-0.7l-0.1-0.2
	l-0.1,1.9l0.3,1l0,0.6l0,0.8l-0.2,0.6l-0.4,0.3l-0.4,0.1l-0.7-0.4l-0.8-0.7l-0.7-0.4l-0.2-0.3l-0.3-0.8l-0.5-0.6l-2.5-0.8l-1.5-0.9
	l-0.1,0.2l0.5,1l0,0.6l-0.4,0.2l-0.7,0.9l0.2,0.1l0.7-0.3l0.8,0l1.3,0.6l1.2,0.7l0.4,0.4l0.2,0.6l0.1,0.2l1.2,0.7l0.1,0.4l-0.8,1.1
	l1.5-0.1l0.9,0.4l1.1,1.7l0.4,1l0,1.2l-0.2,0.4l-0.5,0.2l-3.1,0.4l-1.1,1.5l-0.2,0l-0.9-0.4l-1.6-1.2l-2-1.1l-4.4-3.3l-0.1-0.2
	l-0.1-0.6l-0.3-0.3l-0.6-0.3l-0.8-0.9l-1.1-1.4l-0.7-1.1l-0.2-0.8l-0.6-0.9l-2-1.9l-1-0.7l-0.9-0.4l-0.8-0.1l-0.2-0.3l0.4-0.4l0-0.2
	l-1.8-0.4l-1.7-0.9l-4.3-2.5l-2.2-1.6l-1.3-0.8l-0.5-0.4l-0.2-0.4l0.3-0.4l0.9-0.4l0.6-0.4l0.9-1.6l0.1-0.5l-0.5-1.2l-0.2-1.1l0-0.6
	l0.1-0.6l0.1-0.4l0.4-0.4l0.3-0.2l0.3,0.1l1.1,1.5l0.1,0.5l0,2l0.3,2.4l0.1-0.2l0.1-0.8l0.1-1.5l0.1-0.7l0.2-0.7l0.4-0.4l1.2,0.2
	l0.6-0.1l-2.4-1.1l-1.5-2l-0.3-0.2l-0.8-0.1l-0.9,0.8l-2.2,2.7l-0.6,0.5l-2.8,1.5l-1.9,0.3l-2.1-0.2l-1.8-0.5l-4.6-2.3l-0.7-0.5
	l1.1-1.5l0-0.5l-0.4-1.5l-0.3-0.4l-0.4-0.2l-0.1,0.2v0.4l0.1,0.8l-0.4,0.4l-0.8,0.5l-1.3,0.5l-4.1-1.2l-4.2-1l-3.7-0.2l-5.3,0.8
	l-2.8,0.8l-1.6,0.1l-1.6-0.1l-0.1-0.5l0.7-0.3l0-0.4l-0.9-1.2l-1.4-0.8l-1.9-0.3l-1.1-0.4l-0.3-0.5l-0.7-0.4l-1-0.4l-0.5-0.8
	l0.4-2.4l0.4-1.4l0.4-1l0.9-1.6l-0.3,0.1l-1.3,1.2l-1.1,1.2l-1,1.6l-0.6,0.7l-0.8,0.7l-1.3-0.2l-1.7-1L306,257l-1.2,0l-0.5-0.2
	l0.8-0.9l0.5-0.7l0.7-1.1l0.1-0.6l-4.5-0.2l-0.2-0.6l0-0.4l-0.1-0.4l-0.6-0.3l-0.9,0.2l-1.5,0.7L298,252l0.2-0.3l0.5-0.2l1-1
	l-1.3-0.5l-0.7-0.6l-0.3-0.5l0-1.8l0.4-1.2l3-1.1l-0.9-0.4l-1.9,0.2l-1.2,1l-1.5,1.4l-1,0.5l-0.5-0.4l-0.7-0.1l-0.8,0.1l-0.6,0.4
	l-0.3,0.6l-0.3,0.4l-0.4,0.2l-0.3-0.1l-0.4-0.6l-0.9-0.4l-0.4-0.5l-0.2,0.3l-0.3,0.9l-0.3,0.5l-1.4,0.5l-0.8-0.1l-0.9-1.1l-0.1-0.4
	l0.3-1l2.1-3.9l-0.2,0l-0.7,0.6l-1.3,1.6l-0.6,0.5l-1,0.1l-0.5-0.2l-0.6,0.1l-0.7,0.4l-0.4,0.5l-0.2,0.5l0.1,0.1l1-0.6l0.6-0.1
	l0.2,0.3l-0.8,1.8l-0.5,1.7l-0.5,0.4l-0.7-0.1l-0.8,0.2l0,0.5l1.5,1.3l0.5,0.2l0.7,0.5l0.1,0.5l-0.3,1.3l-0.2,0.5l-0.3,0.3l-1.2,0
	l-0.4,0.1l-0.8,0.8l-0.4,0.7l0.1,0.1l0.7-0.5l1-0.3l1.4,0l1-0.3l0.7-0.5l0.6,0.1l0.6,0.8l0.2,0.7l-0.2,0.6l-0.5,0.5l-0.8,0.3
	l-0.5,0.4l-0.2,0.5l-0.1,0.8l0,1l0.2,1.9l-0.1,0.3l-0.3,0.1l-0.4,0l-0.4,0.4l-0.9,2.5l-0.3,0.3l-0.4-0.3l-0.3,0l-0.3,0.3l-0.6,0.2
	l-1,0.2l-0.9-0.1l-1.5-0.5l-0.6-0.4l-0.5-0.6l-1.4,0.7l-0.4-0.3l-0.9-1.7l-0.2,0.1l-0.2,1.9l-0.3,0.6l-0.8,1.4l-0.5,2.3l-0.1,0.1
	l-0.2-0.3l-0.5-2.1l-0.3-0.5l-0.8,1.2l-0.1,0.4l0.2,1.5l-0.2,0.2l-1.5-0.8l-0.4,0l-0.1,0.1l0.5,1.2l-0.1,0.4l-2.2,2.3l-0.6-0.1
	l-0.4-0.2l-0.4,0l-1.4,0.9l-0.4,0l-0.5-0.5l-0.2,0l-0.1,0.5l0,1l-0.5,1l-1.6,1.6l-0.4,0.7l-0.3,1l-0.2,0.1l-1-0.6l-1.1-0.4l-0.2,0.2
	l0.3,0.6l-0.1,0.4l-0.5,0.1l-0.6,0l-0.7-0.2l-1,0.3l-1.3,0.8l-1.1,0l-1.6-1.3l-0.4-0.1l-0.1-0.4l0.3-1.1l0.4-0.8l0.3-0.4l1.5-1
	l1.7-0.4l1.1-0.6l1.3-1.3l0.7-1l1.4-2.5l-0.1-0.2l-0.3-0.1l-3,2.4l-0.4,0.2l-0.6,0l-2.4-0.9l-0.5-0.4l-0.3-1.1l0.7-2.6l0.5-1.3
	l1.1-2l1.5-2.1l0.5-1.4l0.8-3.6l-0.1-1.7l-0.4-2l0-1.2l0.3-0.4l3.5-1.9l1.6-1.4l3.2-2.1l0.9,0l0.6,0.7l0.7,0.6l0.8,0.4l1.1,0
	l1.3-0.5l2.1,0.2l4.3,1.4l0.9,0.1l0-0.2l-0.7-1l-3-0.6l-1.3-0.6l-3.5-2.5l-0.8-1l0.3-0.4l0.9-0.4l0.3-0.4l0.1-0.6l0.5-0.9l0.9-1.1
	l1.3-1.1l2.5-1.6l-1-0.1l-1.8,0.3l-0.7,0.3l-1.2,1.1l-0.5,0.8l-0.7,1.5l-0.3,0.3l-1.2,0.2l-3.4,0.1l-0.6-0.8l-0.3-0.1l-0.4,0.1
	l-3.1,2l-1.1,1l-0.8,1.2l-1.2,0.9l-1.7,0.5l-1.3,0.7l-1.3,1.3l-0.4,1l0,0.5l0.3,1.5l-0.3,0.3l-0.8,0.1l-1.2,1l-2.6,2.9l-0.3,1.1
	l0,0.4l0.4,0.8l-0.3,0.5l-0.7,0.9l-1.6,1.4l-1.1,0.5l-0.7,0l-0.7-0.2l-1.2-0.9l-1,0l-0.1,0.1l1.3,0.9l1.3,1.2l0.8,1l0.3,0.8l0,0.8
	l-0.3,0.8l-0.9,1.4l-0.9,0.4l-2.4,0.4l-0.8,0.3l-0.2,0.3l1.6,0.6l0.1,0.3l-0.2,1.2l-0.4,0.4l-1.3,0.7l-1.2,0.2l-0.2-0.1l0.2-0.9
	l-0.1-0.2l-0.4-0.2l-0.6,0.4l-1.6,1.4l-0.2,0.2l0.6,0.4l-0.1,0.3l-0.9,1l-0.4,0.7l-0.6,0.7l-2.6,2l0.2,0.5l-0.7,1.8l-0.4,1.5
	l0.5,0.6l2.2,0.8l1.1,0.2l1.2,0.5l2.2,1.4l0.8,0.9l0.1,0.4l-0.1,0.5l-0.3,0.6l-0.7,1.2l-1.7,1.8l-0.8,0.5l-1.2,0.4l-0.4,0.3
	l-1.5,1.7l-0.4,0.9l0.1,0.8l-0.3,0.6l-1.9,1.1l0.1,0.2l0.7,0.1l-0.2,1l-0.1,1.3l-0.3,0.2l-1.2,0l-1.5,0.5l-0.1,0.1l0,1l-4,0.7
	l-0.9,1.8l-0.4,0.6l-1.6,1.3l-0.9,0.5l-1.1,0.3l-0.6,0.5l-0.1,0.6l-0.3,0.5l-0.9,0.8l-0.5,1l-0.3,0.2l-1.8,0.2l-0.4,0.3l-0.2,1.4
	l-0.3,0l-0.6-0.3l-0.8,0.2l-1.8,1.6l-0.4,0.6l0,0.3l0.3,0.3l0.4,0.9l0,0.6l-0.7,1.7l-0.2,0.3l-0.9,0.4l-0.4,1l-0.8-0.1l-0.6,0.2
	l-0.4,0.6l-0.4,0.4l-0.5,0.1l-0.6,0.5l-0.7,0.9l-0.7,0.6l-0.6,0.2l-0.6,0.1l-0.6-0.1l-0.5,0.1l-0.5,0.3l-0.5,0.5l-0.4,1.5l-0.5,0.7
	l-0.3,0.1l-0.6-0.1l-0.9-0.3l-0.9,0.1l-1.5,0.9l-0.5,0.7l0.9,0.1l0.5,0.2l0,0.2l-0.5,0.2l-0.8,0l-0.5,0.2l-0.6,0.4l-1.5,0.4
	l-0.6,0.3l-1.2,1.7l-0.1,0.4l0.1,0.1l0.6-0.2l0.8,0.3l0.4,0.4l0.2,0.4l0.2,0.9l0.1,0.1l-1.5,1.4l-0.4,0.6l-0.3,0.2l-0.2-0.2
	l-0.2-1.6l-0.1-0.3l-0.4,0l-0.3,0.5l-0.7,1.9l-0.8,0.9l-6,2.4l-0.9,0.5l-0.2,1l-0.2,0.9l-0.4,0.7l-0.5,0.5l-0.1-0.3l0.1-2.5
	l-0.1-0.5l-0.6-0.3l-0.3,0l-0.4,0.1l-0.6,0.5l-0.4,0.1l-0.5,0l-0.8,0.5l-1.9,1.7l-1.2,0.4l-0.3,0.4l-0.5,0.9l-0.4,0.3l-0.5,0
	l-0.7-0.3l-0.5,0.2l-0.4,0.7l-0.4,0.3l-1.2-0.5l-0.5,0.3l-0.7,0.9l-0.7,0.6l-0.7,0.3l-1.9,0.3l-0.8-0.2l-0.2-0.2l0-1.1l0.3-0.8
	l0.3-0.4l0.4-0.3l0.6,0l1.1,0.2l-0.1-0.3l-0.4-0.3l-1-0.5l-0.9-0.3l-0.6,0.2l-0.8,0.4l-0.5,0.5l-0.3,0.5l-0.4,1.8l-0.2,0.5l-2.2,3.2
	l-0.9,1l-0.9-0.1l-0.4,0.4l-0.6,0.8l-0.6,0.4l-0.5,0l-0.4-0.1l-0.3-0.3l0.1-0.2l0.4-0.2l-0.1-0.6l-0.6-1l-0.4-0.6l-0.8-0.1l-0.1,0.5
	l0.3,2.4l0,0.5l-0.5,0.7l-1.4,0.8l-0.4-0.1l-1.2-1.5l-1.2-0.3l-0.1,0.5l0.3,1l-0.3,0.9l-0.8,0.9l-0.6,0.4l-0.4,0l0-0.6l0.4-1.2
	l0.1-1l-0.2-0.8l0-0.6l0.2-0.4l1.6-1.2l0.6-0.2l0.4,0.3l0.4,0l0.5-0.2l0.3-0.4l0.1-0.6l0.7-0.7l1.2-0.9l1.4-1.6l1.5-2.4l1.8-2.1
	l2.1-1.8l2.2-1.4l4.5-1.9l0.4,0.1l-0.4,0.6l0.3,0.4l0.4,0l1.7-0.3l0.7-0.4l0.2,0.4l-0.2,0.5l-1,0.5l0,0.4l1.4,1.9l0.5,0.3l0.4,0
	l0.2-0.2l-0.1-1.4l0.5-0.3l1-0.1l0.6,0.2l0.3,0.4l0.6,0.4l0.8,0.3l0.5-0.1l0.2-0.5l-0.4-0.5l-1.6-1.2l-0.4-0.5l-0.1-0.7l0.2-0.9
	l0.5-1.3l0.8-1.8l0.7-1.2l1.4-1.4l1-0.7l2.5-2.1l4.7-2.2l1.2-1.4l1.6-1.5l0.7-0.4v0.6l0.2,0.5l1.1,0.4l0.7,0.1l0.3-0.1l0.1-0.6
	l-0.1-1l0-1l0.1-0.9l0.1-0.7l0.7-1.3l1.1-1.5l1.4-1.7l0.9-0.8l0.9-0.4l0.8-0.8l1.4-1.8l0.5-0.3l1-0.4l0.4,0.2l0.2,0.5l0.3,0.3l1,0.2
	l0.7-0.4l-0.1-0.2l-0.6-0.1l-0.4-0.3l-0.3-1.1l-0.7-0.6l-0.2-0.7l0.1-1.1l0.6-2.7l0.1-2.8l0.5-1.6l1.1-0.6l2.3-0.4l-1.4-0.7l-0.5,0
	l-0.9-0.3l-0.3-1.7l0-1.3l0.6-1.5l2.2-2.5l2.4-1.7l-0.3-0.1l-0.3-0.5l1.1-3.5l1.1-3.1l-1.4,2.7l-1.7,2l-4.9,2.3l-3.4,2l-1.6,0.5
	l-1.1-0.5l-0.8-1.9l-0.5-0.7l-0.6-1.2l0.2-1.6l0.5-1.1l1.1-0.2l1.2,0.5l1,0l-1.3-1.1l-1.9-1l-0.9,0.3l-0.7,1.5l-0.9,1.1l-0.8-0.4
	l-0.5-0.4l0.3,1.3l-0.6,2l-0.2,1.4l0.8,3.6l-0.2,1.4l-1.5,0.6l-1.2-1.2l-2.6-4.5l-0.9-1.3l-2-2.1l-0.7,0.3l-0.9,1.1l-0.8,0.3
	l-2.2-1.6l-1-1.2l-1-1.5l-1.5,0.8l-1.3,1l-1.5,1.5l-1,0l-2.8,1.3l-0.3,0l-0.4,0.7l-0.4,0.3l-0.3,1.3l-3.7,1l-3.7-0.6l1.3-0.7
	l1.4-0.6l1.2-1.4l-0.5-1.9l-0.1-1l0-1.2l1.4-1.7h-1.4l-0.9,0.6l-0.9-1.3l-0.4-2.5l1-1.5l0.4-1.2l0.4-1.6l0-1.4l-0.8-2.3l-2.2-5
	l-1-3.7l-1.7-2l1.3-3.3l1.4-3l1.8-1.4l-0.1-0.2l-1,0l-0.7,0.2l-0.6,1l-0.6,0.8l-1.9,3.8l-1.2,1.9l-0.8,0.5l1.3,0.7l0.2,0.6l0.2,1.4
	l-0.3,1.7l-0.3,0.9l-1.5-0.1l-1.4,1.3l-3.2,1.5l-4.3,0.8l-2.1-0.1l-2.2-1.7l0-1l0.1-0.9l-3.2-2.9l-1.8-2.9l-1.3-0.1l-1.1-0.8
	l-1.3-1.2l0.1-1l0.2-0.7l-0.8-0.5l-1.1,0.1l-1.2-0.3l3.2-3.8l1.1-2.6l0.9-0.4l1.2,0.4l1.6,1l1.4,0.4l0.5,0.5l0.5,0.9l-0.5,1.5
	l-0.5,1.1l0.6-0.3l1.7-1.6l1.2-1.4l0.6,0.1l0.4,0.2l0.7,1.5l0.9,1.5l1.9-1.4l1-1.8l-0.9-0.8l-1.1-0.5l-2.7-0.6l0.6-0.5l1.7,0.1
	l0.6-0.5l-0.7-0.7l-0.9-0.6l-2.3,2l-4.2-0.1l-2.9-1.2l-2.9,0.2l-0.5-0.2l-0.6-0.6l1.7-1.5l1.2-0.8l0.1-0.5l-0.7-0.1l-1.3,0.4
	l-0.6-0.7l0.1-1.2l-0.2,0.1l-0.5,0.7l-0.7-0.3l-0.6-0.6l0.3-0.6l0.6-0.8l-0.3-0.1l-0.6,0.2l-0.6,1.1l0.1,0.9l0,1.2L120,245l-0.8-0.1
	l-0.6-1.2l-0.6-2.6l-1.6-0.7L116,239l1-1.7l-0.4-0.9l-1.1-0.3l-1.2,0.9l-0.6-0.8l-0.1-0.9l0-1.2l0.3-0.1l0.3,0.2l2.5-0.7l0.2-0.3
	l-2-1l-0.6-1.1l0.8-0.6l1.5-0.1l2.1-0.6l-0.9-1.2l-0.2-0.6l-0.2-1.1l0.3-1.8l2.4-4.1l2.4-3.4l0.7-0.8l1.1-0.4l1,0.3l1.1,0.7l0.2-0.3
	l-0.4-0.3l-0.4-1.4l1.5-0.6l0.9-1.6l0.1-0.5l-0.9,0.7l-1,1.1l-0.2-1.1l-0.2-2.5l0.4-2.4l0.3-1.1l0.8-1l2.3-0.4l0.4,0.2l0.1-0.5
	l-1.4-1.5l0.6-1.2l0.5-0.6l2.8-1l1.6,0.3l1.9,1.1l1.1,1.4l-0.2,0.7l-0.3,0.4l-0.6,0.5l-0.2,0.4l0.1,0.3l0.8-0.8l1.4-1l0.8,0.4
	l0.6,0.8l0.7,0l2.1-0.7l1.1-0.7l1.3-1.9l1.8-1.2l2.5-3.9l0.7-1.6l0.8-0.2l0.8,0.1l0.5,1.3l0.8,0.4l4.4-0.3l2.2-0.6l1.6-1.3l1.6-2.2
	l0.9-1.5l0.4-1.9l-0.6-2.5l-0.6-2.1l-0.8-4.7l-2.2-3.1l-1.6-0.9l-1,0.1l0.7-2l2.1,0.2l1.4-0.4l1.1-1l0.4-0.7l0.5-1.5l-0.2-1.6
	l-0.3-0.9l-0.8-1l-0.9-1.4l-0.6-0.5l-0.5,0l-2.6,2.9l-1.6,0.1l-1.2-0.5l-1,1.6l-2.9,1.4l-1.5,1.4l-2.8,3.5l-0.7,1.6l-0.9,0.1
	l-0.6-3.1l-3.1-3l-0.9,1l0.5,0.9l0.7,0.7l1.1,0.3l-0.5,0.9l-0.4,1.2l-1.2-1.1l-2.1-1.6l-2.1-0.8l-5.6,0.1l-3.7,1.7l-0.3-0.4
	l-0.3-0.1l-0.6,0.4l-0.3,0.7l-0.4,0.4l-0.8,0.1l-1.5-0.2l-2.9-1l-6.6-1.5l-1.7-0.9l-1.5-2.2l0-1.5l0.7-0.6l-0.1-2.2l-1.3-0.6
	l-2.6-3.2l-1-1.4l0.2-0.1l0.5,0.4l0.9,0.3l2.2-0.4l0.8-2.1l1.6-0.6l1.5,0.3l-0.3-0.6l-0.4-0.4l-3.9-1.1l-0.5,0.3l-6.9-1.9l-5.5-3.3
	l-0.4-0.6l-0.5-1.4l0.7-1.4L97,147l0,0.8l0.1,0.8l3.1-1.8l1.6-2.3l3.1-0.4l0.7-0.6l1-1.2l1.4-2.1l1.9-1.1l1.3-1l1.7-0.6l1.5,1
	l0.5,0.1l2.7,0.2l0.9-0.4l0.4-0.3l0.3-0.5l-2.6-1.8l0.3-1l0.3-0.7l3.1-2.1l2.4-0.7l1.3,0.1l3.7-2.8l2-0.8l3.8-0.5l3.1-0.1l0.8,1
	l-1.7-0.2l-0.7,0.2l0.5,0.3l0.6,0.7l-0.2,0.9l-1,2.7l0.1,2.1l-0.7,0.7l-0.6,1l3.2,3.1l4.9,0.2l2.7-0.6l1.6,0.9l1.3,0.2l3.5-0.5
	l2.6,0.6l1.1-0.2l2.4-4.6l1-0.7l1,0.8l1.4,0.6l0.9-0.5l0.7,1.2l-0.3-2.5l-0.5-0.9l-4-1.7l-2.7,0.9l-0.8-1l0.3-1.9l-2.9-4.7l-1.2-1
	l-1.4-0.1l-0.7-1.7l-0.6-2.1l1.2-0.9l1.1-0.4l1,0.7l1.1,2.8l1.1,0.4l-0.3,2.8l1.3,2.6l3,2.4l2.4-0.9l1.7,0l1,0.5l2.5,2.1l1.3,0.3
	l3.9-1.1l0-2.1l-0.3-1.5l-0.9-0.9l-2.7,0.2l-2.1-1.6l-1.8,0.4l-3.3,2.4l-1.6-0.9l-1-1.3l-1.6-1.3l-0.2-2.5l1.4-2.8l1-1.4l-0.9-1
	l-2.3-0.7l-4,0.7l-0.2-1l0-1.1l-1.6,2.1l-1.7-0.4l-2.3,0.2l-5-1.8l-1.8-2.2l-0.8-1.8l-1.4-5.1l-1.7-3.2l-11.9-10.9l-5.4-2.8
	l-2.6-3.1l-1.6-0.8l-1.6-0.3l-2-1l1.3-1.2l0.9-0.4l-1,1.3l0.7,0.3l1.2-0.7l0.6-0.9l0.9-3.8l0.9-5.8l-0.2-2.3l6.6,0.5l4.4-0.4
	l1.4-0.5l5.5-0.9l1.4-0.7l2.7-2l3.1-3.5l2.7-4.7l0.4-1.3l0.2,0.3l0.2-0.2l0.3-1.8l0.4-4.2l1.3-4l5.7-9.2l2.6-3.7l0.9-1.7l0.9-1.2
	l0.6,1.2l0.3,0.3l0.2,0.5l-0.5,0.3l-0.9,1.2l-1.2,0.8l-0.3,0.4l0.7-0.1l2.2-0.9l1.2-1.1l6.1-2l3.3-3.2l0.1-0.7l4.9-4.1l0.7,0.2
	l0.8,0.5l-1.4,2.7l0.9,0.7l-0.8,3.2l1.8,0l0.4,1.5l0.1-1.3l0-1.8l0.1-1.8l0.3-1.2l1.2,0.6l2.8-1.3l-3.4-0.2l-2-2.9l-1.1,0l3.8-4.3
	l3.4-2.6l0.8,0.1l0.4,0.5l0.1,0.8l-0.7,0.5l-0.7,0.9l0.3,0.8l0.5,0.1l1.7-0.7l0.7-0.8l3.5,0.1l1-0.6l0.2-0.6l4.6-0.1l0.8-0.4
	l2.9-2.3l2.6-2.8l1.2-1.6l2.1-4l1.8-2.6l2.9-2.7l0.7,0.3l-0.9,0.5l-0.7,1.1l0.9,1.5l6.2,3l1.6,0.2l0.6,1.8l-0.5,1.7l-1.6,1.9
	l-3.2,1.9l1,0.7l0.6,1.7l0.9,0.2l1.6-0.6l1.2-1.1l2.5-3.5l0.8-1.9l0.6-0.5l2.1,0.5l1.2,1l1.4,1.8l-0.5,1.7l-0.6,1l1.8,1.3l1.9,0.3
	l1.9,1.1l2.6-2.2l2-0.5l1.9,0.1l2.5-1.2l4.2,1.6l1.1-0.4l1.7,0.3l1.8,1l0.6,1l-1.9,2.2l-0.3,2.3l0.7,0.9l1.2,0.2l0.1,1.3l0.8,0.3
	l3.8-0.1l-0.3,0.6l-0.2,0.8l-1.2,1.7l6.8,0.9l0.9-0.9l1.4-0.4l3-1.3l1.1,0.6l1.3,1.3l1.2,0.3l1.1-0.3l2.7-1.9l3.1-0.1l1.3,0.6
	l1.3-0.3l4,2.1l1.5,0.2l2,2.8l1,0.1l1.1-1.2l1,0l1,1.1l1.6,0.3l0.7,1.8l0.8,0.6l6,1.3l3-0.6l4.4,0.2l2.1,0.8l2.2-0.1l3.6,3l1.9,0.5
	l0.4,0.7l5.4,0.7l1.9-1.6l3.3-0.4l3-1.3l1.7,0l2,0.3l0.8-0.2l0.5-0.6l4.8,2.3l2.7,2.6l1.2,1.9l5.6,2.7l1.6,1.5l1.1,1.7l0.6,0.2
	l0.5-0.5l2,0.1L350.4,49.9L350.4,49.9z M114.1,135.8l-0.4,0.1l0-0.4l1.1-0.9l2-1.2l-0.1,0.3l-1.1,0.9L114.1,135.8L114.1,135.8z
	 M63.7,193.3l0.1,0.5l1-0.1l1.4,0.2l1.5,0.5l1.5-0.2l1.9-1.6l1.1-0.4l1.1-0.2l1.2,0.4l1.2,0.8l0.5,0.5l0.4,0.9l0.2,1l0.4,0.8
	l2.3,0.9l1.4,0.4l0.3,0.5l0.3,0.7l1.2,0.5l1.2-0.2l0.7,0.2l2.1,0l2.6,0.8l-0.4,2l-0.9,0.9l-2.4-0.3l-2.4,0.3l-1,1l-0.8,1.3l-0.1,1.3
	l-0.5,0.6l-0.5,0.3l-0.4-0.7l-0.6-2.1l-0.4-0.6l-0.4-0.4l-1.2-0.7l-1.2-0.4l-0.7-0.1l-0.5-0.8l-0.3-1.1l-0.5-0.6l-0.9-0.8l-1-0.6
	l-3-1.4l-1-0.2l-1,0.1l-1.1,0.6l-1.1,0.9l-1.1,0.7l-1.1,0.1l-1.1-0.4l-1-0.9l-0.5-0.6l-0.3-1.1l0-1.1l0.1-1.1l0.5-2.6l0.9-0.5
	L63.7,193.3L63.7,193.3z M285.2,250.1l-1.2,0.2l-0.5-0.2l-0.1-0.3l0.2-1l0-0.4l0.6-0.1l0.7,0.5l0.2,0.5L285.2,250.1L285.2,250.1z
	 M51.6,257.2l2,1.2l1.3-0.1l1,1l0.4,0.9l-1.5-0.6l-2.2,0l-3-2.5l-1.1-0.6l0.2-1.4l1.2-0.7l0.6,1.9L51.6,257.2L51.6,257.2z
	 M246.7,259l-0.4,0.1l0.6-0.9l0.4-1.8l0.6,0.3l0.1,0.3l-0.9,1.9L246.7,259L246.7,259z M287.8,257.3v0.5l-0.3,0.5l0.3,0.9l-0.5,1.5
	l-0.2,1l-0.3,0.6l-0.3,0.2l-0.3-0.1l0-0.3l0.1-0.5l-0.6,0l-0.2-1.3l0.3-0.4l0.1-0.6l0-0.4l0.4-1.7l0.1-0.1l0,0.4l0.1,0.1l0.2-0.2
	l0.3-0.8l0.1-0.1L287.8,257.3L287.8,257.3z M299.7,257.3l0.2,0.5l1.8-0.1l0.5,0.1l0.2,0.2l-0.2,0.4l-0.7,0.5l-2,0.8l-1.7,1.1
	l-0.2-0.1l-0.3-1.2l-0.3-0.5l-0.2-0.7v-0.2l0.3-0.5l0.6-0.7l0.4-0.2L299.7,257.3L299.7,257.3z M311.7,259.4l-0.3,0.5l-0.8-0.2
	l-0.4-0.3l1.5-1.2l0.2,0.2L311.7,259.4L311.7,259.4z M113.8,258.6l0.9,0.9l0.5,0l1.4-0.3l0.5,0.2l0.5,0.4l0.3,0.6l0.1,1.1l-0.2,1
	l0.1,1.4l-0.1,0.6l0.8,0.8l0.2,1l0.1,1.1l-1.7,0.4l-1.7,0.1l-1.4,0.8l-0.3,0.6l0.2,0.8l-0.4,0.2l-0.4-0.2l-0.7-0.8l-0.8-0.4
	l-2.7-0.6l-3.4-2.2l-1.4-0.5l-1.5-1.6l-1.3-2.1l0.9-0.3l0.9-0.2l3.9,0.3l0.5-1.5l0.5-0.4l1.2-0.4l1.2-0.8l0.5,0l0.5,0.3l1.1-0.5
	l0.6-0.1L113.8,258.6L113.8,258.6z M287,269.3l-1,0.3l-0.2-0.5l0.5-1.4l0.4-0.8l0.3-0.2l1.2-1.6l1.3-1.1l1.2-1.7l1.2-2.4l0.2-0.9
	l0.6-0.1l0.9,0.6l0.6,0.8l-0.3,0.6l-3.1,3.4l-0.3,0.4l-0.3,1.1l-0.3,0.4l-0.4,0.2l-0.3,0.5l-0.2,0.8l-0.4,0.4l-0.6,0l-0.4,0.2
	l-0.2,0.4L287,269.3z M284.3,264.6l-0.5,0.6l-1.9-0.4l0.4-1.1l1.4-0.7l1.6,1.1L284.3,264.6L284.3,264.6z M316.9,269.2l-0.5,0.1
	l0.7-1.2l0.9-1.4l0.9-0.9l1.1-0.4l-0.1,0.6l-1.5,1.1L316.9,269.2L316.9,269.2z M162.9,292l-0.7,0.3l-0.7-0.1l-0.6-1.8l0.4-0.1
	l0.9-1.2l2.1-1l0.5-0.1L162.9,292L162.9,292z M242.3,293.7l-0.3,0.1l-0.7-0.5l-0.4-0.6l0.3-0.4l1.3-0.9l0.6,0l0.3,0.1l0.1,0.3
	l-0.1,0.4l-0.3,0.5L242.3,293.7L242.3,293.7z M243,295.9l0.3,0.1l0.4-1.1l0.2,0l1.1,0.9l0.7-0.2l0.4,1.1l0.4,0.1l0.4-0.1l0.2,0.1
	l-0.1,1.2l-0.8,1.2l-0.4,0.3l-0.5-0.3l-0.2-0.1l-0.4-0.5l-0.3-0.7l-0.2,0l-0.6,0.8l0,0.4l0.3,0.6l0,0.4l-0.7,0.2l-0.7-0.1l-0.8,0.5
	l-0.2-0.3l-0.1-0.9l-0.2,0.1l-0.4,1.1l-0.4,0.7l-0.8,0.6l-0.2,0.3l-0.6,0l-0.8,0.4l-0.5-0.1l-3-1.2l-0.7-0.4l2.5-2.7l1.3-1l0.8,0.1
	l0.8,0.3l0.4,0l0-1.2l-0.7-0.9l0-0.4l1.6-0.6l0.6,0.1l0.6,0.3l0.6,0.5L243,295.9L243,295.9z M409.9,299.4l2.4,0.4l1.8-0.1l1.6,2.6
	l1,2.1l0.6,1.5l0.3,1.4l0.4,1.4l0,0.2l-0.9-0.9l-0.7-1.9l-0.3-0.7l-0.3-0.3l-0.4-0.7l-0.7-1.8l0-0.5l-0.3-0.5l-0.4-0.2l-0.4,0.1
	l-0.1,0.2l0.1,1.3l0.3,1.4l1.7,3l1.1,1.7l0.2,0.6l0.1,1.6l-0.5,0.7l0.6,1.4l0,0.3l-0.1,0.3l-1.6,0.6l-1.5,2.7l-1.6,1.5l-0.8,0.2
	l-0.4-0.3l-0.4-0.6l-0.2-0.8l-0.1-1l0.4-0.6l0.8-3.3l0-1.1l-1-1.5l-0.6-1.2l-0.3-1.7l-0.5-4.6l-0.3-1.5l-0.4-1.2l-0.5-1l-0.4-1.1
	l-0.2-1.2l0.1-0.5l0.8,0.6l1,1.7L409.9,299.4L409.9,299.4z M413.4,298.2l-0.1,0.4l-1.3,0l-1.3-0.6l-0.6-0.9l0.1-0.4l1.2-0.4l1.1,0.8
	L413.4,298.2z M400.1,298l1.4,1.7l0,0.4l-0.3,1.2l-0.7,0.3l0.2,0.5l0.5,0.4l0.4-0.3l1.4-1.7l0.4-0.4l0.3,0l1.7,0.5l1.5,0.8l0.5,0.6
	l0.2,1.1l-0.4,2.4L406,306l-0.6,0l-0.6-0.4l-1,0.8l0.8,0.6l2.5,0.1l0.8,1.3l0.2,1l-0.5,1.9l-1.4-0.5l-1.3-1.1l-2.6-1.6l-0.6-0.1
	l-0.4,0.3l-0.1,0.9l0,2l-0.7,1.1l-2.1-0.5l-0.8-1.5l-0.8-2.5l-2.8-2.9l-0.8-0.6l-1-1.8l0.4-1.4l0.1-0.8l0.5-0.2l0.8-0.6l0.5-1.4
	l0.7,1.1l1,1l0-1l0.5-0.8l0.9,0l0.4-0.2l0.6-0.7l0.9-0.4L400.1,298L400.1,298z M238.4,305.4l0.1,1l0.4-0.1l1.4-1l0.8-0.3l1,0
	l0.8,0.5l0.2,0.4l-0.1,0.4l-0.6,0.8l0,0.5l0.7,1l1.6,0.5l0.2,0.3l0,0.4l-1.1,1.7l-0.4,0.4l-0.3,0.1l-2.1-0.3l-1.9-0.5l-0.8-0.1
	l-0.3,0.2l-0.5,0.5l0.4,0.1l1.6,0.1l0.6,0.7l0.2,0.5l0.1,0.6l-0.3,0.2l-0.7,0.2h-0.9l-1.1,0.7l-0.6,0.8l-2.1,0.2l-1.6,1l-0.6,0.5
	l-0.2,0.6l-0.6,0.4l-1.4,0.4l0.8,0.4l0.1,0.3l0,0.5l-0.1,0.4l-1.1,1.8l-2,1.4l-0.5-0.1l-0.2-0.2l-0.2-0.3l0-0.3l2.6-2.9l-0.1-0.1
	l-0.7-0.1l-1.1-0.8l-0.8,0.5l-0.2,0l0.2-0.7l0.5-0.8l-0.1-0.2l-0.3-0.2l-0.6-0.1l-1,0l-0.8,0.2l-0.5,0.4l0,0.2l1.1,0l0.3,0.2
	l0.3,0.4l0.2,0.5l0.1,0.5l-0.2,0.7l-0.5,0.9l-0.7-0.2l-1.5-2l-0.7-2.9l-1.3-2.2l-0.1-0.5l0.4-1.4l1.3-2l1.4-0.5l1-0.8l1-0.2l0.6,0
	l0.8,0.4l0.3,0.8L228,310l0.1,0.2l0.6,0.5l0.6,1.6l0.7,1.4l0.5,0.6l0.6,0.4l-0.6-1.1l-0.4-1.3l-0.2-2.7l-0.2-0.7l0.4-0.2l1,0.1
	l0-0.4l-1.1-0.9l-0.7-0.8L229,306l0-0.5l0.6-0.8l0.3-0.2l0.4-0.1l0.7,0.2l0.3,0.2l0.9,1.7l0.4,0.5h0.3l0.3-0.3l0.3-0.6l0.3-0.3
	l0.3-0.1l1,0.2l0.3-0.1l0.2-0.4l0-0.8l0.2-0.3l0.1-0.6l-0.5-0.8l0.6-0.2l2,0.6l0.9,0.7L238.4,305.4L238.4,305.4z M235.2,305
	l-0.3,0.5l-0.2-0.1l-0.5-0.6l-1.1-0.8l-0.5-0.6l0-0.2l0.4-0.3l1.3,0.7l0.5,0.6L235.2,305L235.2,305z M407.2,313.7l0.8,1.9l0.6,1.5
	l0.5,1.8l0.9,3.6l0.4,1.4l0.1,0.8l0.1,2l-0.1,0.4l-0.3,0.4l0,0.6l0.2,1.5l0,2.3l-0.2,1.3l-0.3,0.2l-0.6-0.4l-0.5-0.7l-0.4-0.7
	l-1-2.3l-0.3-1.1l0-0.8l0.1-0.5l0.3-0.3l0.5-0.9l-0.1-0.1l-0.4,0.2l-0.9,0.1l-0.8-0.7l-0.6-0.4l0.1-1.3l-0.2-0.4l-1.1,0.4l-0.4-0.4
	l-0.1-0.5l0-0.7l0.2-0.6l1.1-1.6l-0.1-0.3l-0.5-0.1l-0.7-0.6l-0.3-1.9l-0.8-1.1l-0.4,0.1l-1,3l-0.5,0.6l-1.4,0.4l0.3-0.8l0.1-0.7
	l-0.5-2.2l0-0.9l0.3-0.6l1-0.3l0.5-0.4l0.4-0.6l0.1-0.6l0.8-1.6l0.4-0.3l1,0l2,1.8l0.6,0.3L407.2,313.7L407.2,313.7z M75.9,316.6
	l-1,0.8l-0.9-0.3l-0.3-0.6l0-0.3l2.6-0.7C76.4,315.6,75.9,316.6,75.9,316.6z M237.4,317.6l-1.2,0.6l-0.2,0l-0.7,1.1l-0.6,0.5
	l-0.8-0.9l0.2-1.4l0.6-0.9l3.3,0.3l0.2,0.3l0,0.2l-0.2,0.2L237.4,317.6L237.4,317.6z M422.3,319.7l0.6,0.5l0.3-0.6l0.6,0l1.2,0.5
	l0.7,0.8l0.4,0.9l0,0.5l-0.1,1.2l0.1,1.2l0,0.6l-0.2,0.5l-0.3,0.4l-0.3,0l-0.9-1.1l-1-1.9l-0.8-0.6l0,0.2l0.2,0.5l0.6,1l0.1,0.6
	l0.5,0.8l0.2,0.6l0.1,0.8v0.7l-0.1,0.6l-0.2,0.4l-0.3,0.2l-1.6-0.2l-1,0.4l-1.1-0.2l-0.3-0.3l-0.2-0.6l-0.1-1.4l-0.3-1.9l0.1-1.5
	l-0.7-1.4l-0.6-0.8l-0.9-0.7l-0.6-0.7l0.2-0.6l0.9-0.4l1.5,0.1L422.3,319.7L422.3,319.7z M416.4,322.5l0.6,1.2l0.9-0.1l0.5,0.9
	l0.4,1.3l-0.3,0.9l-0.4-0.2l-0.4,0.5l-0.3,1.6l0.1,1.6l-0.1,1.6l-0.5,1.7l-0.1,1.1l-0.2,0.3l-0.2,0.1l-0.3-0.3l-0.4-0.2l-0.5,0.9
	l-0.6,0l-0.5-2.1l0.5-3.6l1-0.7l-0.6-1l-1.3-1.1l0.1-0.6l-1-1.8l-0.1-0.4l0.2-1.5l0.9-1.4l1.2-0.2l0.9,0.6l0.5,0.5L416.4,322.5
	L416.4,322.5z M428.1,327.9l-0.1,0.2l-1.2,0l-0.4-0.2l-0.2-0.7l0.1-0.7l0.3-0.5l0.3-1l0.3-1.7l1.8,1.9l0.5,0.8l0.3,1l-0.6,0.4
	l-0.8,0.2L428.1,327.9z M79.8,326.1l1.2,0.3l0.7-0.2l0.6,0.2l0.1,0.4l-1.1,0.9l-0.4-0.1l-1.3-1.1L79.8,326.1z M226.1,328.1l-0.5,0
	l-0.7-0.5l0.1-0.5l1-0.6l1,0.1l0.1,0.4l-0.1,0.4l-0.1,0.2l-0.3,0.2L226.1,328.1L226.1,328.1z M221.6,329.5l-0.6,0.4l-0.2-0.1l0-0.3
	l0.1-0.5l0.3-0.5l1-1l1-0.7l0.5,0l0.2,0.4l-0.6,0.9L221.6,329.5L221.6,329.5z M434.1,335l-0.2,2.8l-0.4-0.2l-0.4,0l-0.7,0.4
	l-0.8-0.2l-0.4-0.3l-0.1-0.4l0.1-0.8l-0.4-0.5l-1.4-0.2l-0.5-0.2l-0.3-0.9l-0.1-1.1l0.2-0.4l0.7-0.3l0.6-1.4l0.3-0.2l1.2-2.8
	l0.6,0.2l1,1.7l1.3,2.4L434.1,335L434.1,335z M427.8,332.7l-0.5,0l-0.6-0.3l-1.4-1.4l0-0.4l0.2-0.5l0.8-0.9l0.3-0.2l1.8,0.1l0.6,0.2
	l0.1,0.4l0,0.4l-0.2,0.4l0,0.4l0.1,0.4l-0.2,0.4L427.8,332.7L427.8,332.7z M420.4,331.1l1.8,0.4l1.6,0l0.6,0.7l0.4,0.7l0.2,0.7
	l0.1,0.6l0,0.5l-0.2,0.5l0,0.2l3.2,1.6l1.5,1.7l0.6,0.9l0.4,0.7l0.6,1.9l1.3,2.1l0.7,0.6l0.4,0.6l-0.2,0l-0.9-0.5l-2-1.4l-0.2,0.1
	l-0.2,0.8l-0.3,0.7l-0.5,0.5l0.4,0.1l1.6-0.3l1.4,1.4l0.5,0.2l0.5,1l0,0.4l-0.3,0.7l-0.2,0.3l0.1,0.2l0.4,0.1l1.5-0.2l0.3,0.4
	l-0.2,2.9l0.2,1v0.5l-0.2,0.6l0,0.5l0.1,0.5l0,0.5l-0.4,1.3l-0.4,0.2l-0.6,0l-0.5-0.4l-0.7-1.1l-0.7-1.7l-0.3-0.2l-0.9-0.3l-0.2-0.2
	l-0.6,0l-0.4-0.7l0-0.9l-0.4-1l0-0.4l-0.4-0.2l-0.3,0.3l0.2,0.9l-0.2,0.7l-0.7-0.3l-1.2-2.3l-1.4-1.9l-0.5-0.4l0.1-0.5l0.7-0.3
	l0.6,0l0.1-0.3l-1.2-1.8l0-0.5l0.4-0.9l-0.5-0.4l-1.5,0.3l-0.5-0.2l-0.4-0.7l-0.2-0.6l-1.3-0.1l-0.5,0.1l-0.8-1l-0.4-0.6l0.1-0.3
	l0.8-0.5l0.4,0.1l0.9,0.6l0.3,0l0.8-0.8l0.1-0.7l0.6-0.6l-0.1-0.6l-0.4-1l-0.8-0.3l-1.6,0.6l-1.4,1l-0.5-0.4l-0.1-0.6l1.5-1.6
	l0.6-0.9l-0.1-0.5l-0.5-0.7l0-1.7L420.4,331.1L420.4,331.1z M444.8,345.3l-0.3,1.8l-0.6,1.9l-1,1l-0.7-0.2l-0.5-0.8l-0.5,0l-0.5-0.2
	l-0.3-0.7l0.3-0.9l-0.2-0.7l-0.2,0.6l-0.5,0.5l-1.1,0.7l-0.8,1.3l-0.4,0.9l-0.5-0.9l-0.3-2.2l0-1l0.8-1.4l1-1.4l0.2-4.1l3.4-2.1
	l0.3,0.1l1.1,1.5l1.2,2.2l0.3,1l0,1.7L444.8,345.3L444.8,345.3z M213.3,339.8l-0.4,0.5l-0.7,0l-0.4-0.2l-0.1-0.5l1.1-1.4l0.2-0.2
	l0.2,0l0.1,0.6L213.3,339.8L213.3,339.8z M422.9,344.4l0.2,0.5l0,0.3l-1.4,1.1l0,0.2l-0.3,0.7l-0.3,0.2l-0.5,0.7l-1,0.8l0.1-2.4
	l-1-1.4l1-0.7l0.6,0.2l1,0.1l1-0.6L422.9,344.4L422.9,344.4z M165.1,348.2l0.1,0l0.3-0.1l0.6-0.9l0.2,0v0.3l-0.3,0.9l0.5,1.2
	l0.5,0.6l-0.1,0.2l-1.1,0.4l-0.9-0.3l-0.5,0.1l-0.4,0.4l-0.3-0.5l-0.2-2.3l0.1-0.4l0.5-0.8l0.6-0.4l0.3,0.1l0.2,0.3l0.1,0.3
	L165.1,348.2L165.1,348.2z M168.5,347.9l-0.1,1.3l-1.3-0.8l-0.4-0.4l0.2-0.3l1.2-0.1L168.5,347.9L168.5,347.9z M427.1,355.1l0.2,0.2
	l0.2-0.2l0.4-0.6l0.7,0.1l0.5,0.2l0.3,0.2l-0.2,0.9l-0.1,1.4l-0.3,0.5l-0.3,0.7l-1-0.4l-0.8-0.9l-1.1-1.5l-0.6-1.1l0-0.5l-0.4-0.3
	l-0.8-1.9l-0.4-1.5l-0.7-0.2l-0.9-0.4l-0.3-0.8l0.2-0.7l1.2-0.4l1.9,1.9l0.3,0.8l0.7,0.9l0.1,1.3l0.3,0.5L427.1,355.1L427.1,355.1z
	 M172.8,351.3l-0.6,0.4l-0.2,0.5l-0.4,0.2l-0.4,0.4l-1.2,1.7l-0.5,0.3l0.6-1.4l0.1-0.5l0-0.3l-0.2-1.1l0.4,0l0.3-0.2l0.6-1l0.5-0.1
	l0.6-1.1l0.3-0.1l0.1,0.2l-0.3,0.7l0.6,0.6L173,351L172.8,351.3L172.8,351.3z M441.4,352.1l1,2.1l0,0.8l-0.9,0.3l-0.7-0.1l-0.4-0.2
	l-0.1-0.4l0.2-1.1l-0.5-0.6l-0.5-0.2L439,353l0-1.1l0.4-0.8l-0.2-1l0-0.8l0.1-0.2l0.5,0l1,0.8L441.4,352.1L441.4,352.1z
	 M176.2,350.9l-0.1,1.3l-0.1,0.2l-0.2-0.4l-0.5,0.4l-0.3-0.3l0.1-0.5l0-0.4l0.4,0l0.1-0.6l-0.1-0.3l0.2-0.6l0.3-0.1L176.2,350.9
	L176.2,350.9z M177.6,353.9l-0.3,0.1l-0.2-0.2l-0.4-0.9l0-0.4l0.7,0.3l0.3,0.7L177.6,353.9L177.6,353.9z M138.9,353.7l0.9,2.7
	l0.4,0.5l0.6,0.3l0.8,0.3l0.5,0.4l0.4,0.6l0.1,0.3l-2.6-1.1l-1.6,1.6l-0.5,0.2l-4.6,0.1l-0.9,0.3l-0.6,0.5l-1.1,1.4l-0.5,0.6
	l-0.6,0.3l-1.2,0.4l-1.4,0l-0.8-0.2l-0.4-0.7l-0.4-1.4v-0.4l0.2-0.6l1.3-0.9l0.4-0.5l1.7-3.1l0.5-0.4l0.5-0.1l1.4,0.2l1.2-0.9
	l2.6-1.4l0.6-0.2l1.9,0l0.5,0.2l0.4,0.4L138.9,353.7L138.9,353.7z M150,355.9l-0.2,0.1l-0.6-0.5l-0.2-0.4l-0.2-0.6l1.3-0.8l0.3,0
	l0.2,0.5l0,0.4l-0.4,1.1L150,355.9L150,355.9z M147.5,363.1l-0.8,0.4l-0.9-0.4l-0.7-0.7l-0.1-0.8l1.6,0.5l0.4,0.2L147.5,363.1
	L147.5,363.1z M119.2,367.4l-0.4,0.1l-0.1-0.2l-0.1-0.7l-0.3-1.1l0.6-0.4l0.4-0.1l0.2,0.2l0.4,0.8l0.4,0.2l0.3,0.2l-0.6,0.3
	L119.2,367.4z M116.6,368.5l-0.4,0.3l-0.3,0.1l-0.2-0.2l-1,0.2l-0.2-0.1l-0.4-1l0-0.5l0.2-0.4l0.4-0.4l0.7-0.3l0.7,0.1l1.2,0.9
	l0.6,0.5l0.1,0.3l-0.4,0.3L116.6,368.5L116.6,368.5z M109.3,371.2l0.4,0.8l0.7-0.5l0.5-0.7l0.4-0.9l0.3-0.3l0.3,0.5l1,0.6l-0.8,0.9
	l-1.6,1.4l-0.5,0.9l0,0.4l1.6-0.3l0.4,0l0.3,0.3l-0.4,0.4l-0.8,0.3l-0.7,0.7l-1.7,1.1l-0.6,1l-0.8,0.4l-1,0.1l-1.8,0.6l-1.1,0.6
	l-0.3,0.3l-0.3,0.1l-0.4,0l-0.4,0.3l-0.5,0.5l-0.4,0.2l-0.7,0.1l-0.3,0.2l-0.4,0l-1.1-0.6l-0.3-0.4l0.9-0.7l0.7-0.2l1-0.1l1-0.7
	l2.1-0.9l0.6-0.5l0.4-1.7l0.5-0.3l0.2-0.7l1.1,0l0.5,0.8l0.2,0.1l0.1-0.1l0.1-0.6l0.6-0.4l-0.3-0.3l-1.1-0.4l-0.8-0.2l-0.5,0
	l-0.4-0.2l-0.3-0.5l-0.2-0.5l0-0.5l0.3-0.5l0.5-0.6l0.6-0.3l1.2-0.2l1.1-0.4l0.6-0.1l0.4,0.2L109.3,371.2L109.3,371.2z M113.1,374
	l-0.1,0l-0.2-0.4l0-0.4l0.2-0.3l0.4-0.6l0.3-0.2l0.4-0.1l0.1,0.2l-0.3,0.7l-0.4,0.5L113.1,374L113.1,374z M96.6,380l-2.9,1.7
	l-0.9,1.2l-0.7,1.2l-0.6,0.6l-0.4,0.1l-0.5,0.3l-0.9,0.8l-0.4,0.1l-3.1,1.9l-0.2,0l0.2-0.5l0.9-0.7l0.6-0.6l0.7-1.1l0.4-0.4l0.1-0.5
	L89,383l0.2-0.4l0.7-0.8l0.5-0.5l0.6-0.1l1.3,0.1l0.5-0.4l0.2-0.3l-0.3-0.3l-0.1-0.5l0.1-0.9l0.4-0.8l0.7-0.7l0.9-0.5l1.1-0.4l0.8,0
	l1.5,0.8l0.2,0.4l-0.4,0.8l-0.2,0.7L96.6,380L96.6,380z M80.4,387.8l-0.2,0.6l-0.1,0.2l-1.4-0.3l-1,0.1l-0.1-0.4l0.1-0.3l1.5-0.5
	h0.6l0.4,0.3L80.4,387.8L80.4,387.8z M70.6,391.9l-0.6,0.5l-0.2-0.2l-0.1-0.6l0.3-0.5l1-1l0.7,0.2l0.2,0.3l0,0.4l-0.3,0.5l-0.3,0.2
	H71L70.6,391.9L70.6,391.9z M33.4,400.3l-5,0.6l-0.8-0.4l0.8-0.2l0.9-0.1l1.9-0.7l2.3-0.6l1.8-0.8l1.6-0.5l0.5-0.8l-1.4-0.4
	l-0.3-0.3l0.7-0.4l0.5-0.5l1.3-0.6l1.2,0.8l0.3,0.5l-0.1,0.6l-0.2,0.7l-1,0.4l-0.2,0.4l0.5,1l-2.1,0.9L33.4,400.3L33.4,400.3z
	 M54.3,396.6l-0.7,0.2l-0.8-0.2l0.3-0.8l0.4-0.4l0.7-0.5l0.8,0.2l0.7,0.7L54.3,396.6L54.3,396.6z M44,398.7l1.8,0.6l2.3-0.1l0.8,0.1
	l0,0.2l-1.5,0.2l-0.5-0.1l-1.3,0.3l-0.9,0.1l-2-0.3l-1.5,0.2l-0.4-0.1l-0.5-0.3l-0.6-0.5l0-0.3l0.5-0.1l1.4,0.4l0.1-0.2l1.2-0.4
	C43,398.6,44,398.7,44,398.7z M20.8,400.8l-0.2,0.5l-0.9-0.5l-0.3-0.4l-0.1-0.4l0.3-0.7l0.7,0l0.4,0.3l0.4,0.5l0.1,0.3L20.8,400.8
	L20.8,400.8z M15.4,402.8l0.1,0.5l1.1-0.1l0.3,0.3v1l-0.1,0.3l-0.2,0.1l-0.4-0.2l-0.4,0.5l-2,1.2l-0.6-0.7l-1.2,1.1l0.8-2.8l0.9-0.4
	l0.4-0.3l-0.1-0.8l0.4-1.4l1,0.1l0.4,0.6l0,0.4C15.8,402,15.4,402.8,15.4,402.8z M10.2,405.1l-0.3,0.2l-0.5,0.1L8,405.3l-0.9,0
	l-1,0.1l-0.7,0.3l-0.1-0.4l0-0.3l3.1-0.8l0.7-0.4l0.4-0.5l0.4-1l0.3-0.3l0.2,0l0.4,0.4l-0.2,0.5l-0.4,0.5l-0.1,0.4
	C10.3,403.7,10.2,405.1,10.2,405.1z M3.3,406.1l-0.2,0.5l-0.2,0l-1.3-0.8l-0.2-0.3l0.7-0.4l0.2-0.3l-0.1-0.4l-0.5-0.6l-1-0.7
	l-0.4-0.5l0.2-0.3l0.5-0.2l1.5,0l0.8,0.9l0.6,0.3l1.5,0.2l-0.8,0.4l-0.4,0.4l-0.5,1.4L3.3,406.1L3.3,406.1z M20.9,403.7l-0.8,0.3
	l-1-0.7l0.1-0.8l1.1,0.6L20.9,403.7L20.9,403.7z M18.3,404l-0.6,0.9l-0.4-0.4l-0.2-1.2l0.3-0.3l0.9,0.9L18.3,404L18.3,404z"/>
</svg>
